<?xml version="1.0" encoding="utf-8"?>
<svg version="1.1" xmlns:xlink="http://www.w3.org/1999/xlink" width="28px" height="33px" xmlns="http://www.w3.org/2000/svg">
  <g transform="matrix(1 0 0 1 -404 -733 )">
    <path d="M 21.072916666666664 1.252232142857144  L 26.760416666666664 6.997767857142856  C 27.100694444444446 7.341517857142855  27.392361111111114 7.808035714285716  27.635416666666664 8.397321428571429  C 27.87847222222222 8.986607142857144  28 9.526785714285714  28 10.017857142857144  L 28 31.232142857142858  C 28 31.72321428571429  27.82986111111111 32.140625  27.489583333333336 32.484375  C 27.14930555555556 32.828125  26.736111111111114 33  26.25 33  L 1.75 33  C 1.263888888888889 33  0.8506944444444445 32.828125  0.5104166666666667 32.484375  C 0.17013888888888887 32.140625  0 31.72321428571429  0 31.232142857142858  L 0 1.767857142857144  C 0 1.2767857142857135  0.17013888888888887 0.8593749999999988  0.5104166666666667 0.515625  C 0.8506944444444445 0.17187500000000122  1.263888888888889 0  1.75 0  L 18.083333333333336 0  C 18.569444444444446 0  19.104166666666664 0.12276785714285854  19.6875 0.36830357142857195  C 20.270833333333336 0.6138392857142854  20.73263888888889 0.9084821428571415  21.072916666666664 1.252232142857144  Z M 19.4140625 2.9095982142857157  C 19.268229166666664 2.7622767857142843  19.019097222222225 2.627232142857139  18.666666666666664 2.5044642857142843  L 18.666666666666664 9.428571428571429  L 25.520833333333336 9.428571428571429  C 25.39930555555556 9.072544642857139  25.265625 8.820870535714285  25.119791666666664 8.673549107142856  L 19.4140625 2.9095982142857157  Z M 2.333333333333333 30  L 25.666666666666664 30  L 25.666666666666664 11.785714285714285  L 18.083333333333336 11.785714285714285  C 17.59722222222222 11.785714285714285  17.18402777777778 11.613839285714283  16.84375 11.270089285714285  C 16.50347222222222 10.926339285714285  16.333333333333336 10.508928571428568  16.333333333333336 10.017857142857144  L 16.333333333333336 3  L 2.333333333333333 3  L 2.333333333333333 30  Z M 17.5 16.5  L 23.333333333333336 22.392857142857142  L 23.333333333333336 28  L 4.666666666666666 28  L 4.666666666666666 24.75  L 8.166666666666668 21.21428571428571  L 10.5 23.571428571428573  L 17.5 16.5  Z M 10.645833333333332 17.825892857142858  C 9.96527777777778 18.513392857142854  9.13888888888889 18.857142857142858  8.166666666666668 18.857142857142858  C 7.1944444444444455 18.857142857142858  6.368055555555556 18.513392857142854  5.6875 17.825892857142858  C 5.006944444444445 17.138392857142858  4.666666666666666 16.303571428571427  4.666666666666666 15.321428571428571  C 4.666666666666666 14.339285714285715  5.006944444444445 13.504464285714285  5.6875 12.816964285714285  C 6.368055555555556 12.129464285714283  7.1944444444444455 11.785714285714285  8.166666666666668 11.785714285714285  C 9.13888888888889 11.785714285714285  9.96527777777778 12.129464285714283  10.645833333333332 12.816964285714285  C 11.32638888888889 13.504464285714285  11.666666666666668 14.339285714285715  11.666666666666668 15.321428571428571  C 11.666666666666668 16.303571428571427  11.32638888888889 17.138392857142858  10.645833333333332 17.825892857142858  Z " fill-rule="nonzero" fill="#e4e4e4" stroke="none" transform="matrix(1 0 0 1 404 733 )" />
  </g>
</svg>