<?xml version="1.0" encoding="utf-8"?>
<svg version="1.1" xmlns:xlink="http://www.w3.org/1999/xlink" width="11px" height="8px" xmlns="http://www.w3.org/2000/svg">
  <g transform="matrix(1 0 0 1 -167 -151 )">
    <path d="M 10.88977955911829 0.8247422680412484  C 10.96325985303941 0.9163802978235935  11 1.021764032073321  11 1.1408934707903882  C 11 1.2600229095074411  10.96325985303941 1.3654066437571544  10.88977955911829 1.4570446735395137  L 5.753507014028008 7.862542955326461  C 5.6800267201068895 7.95418098510882  5.595524382097574 8  5.5 8  C 5.404475617902427 8  5.319973279893111 7.95418098510882  5.246492985971992 7.862542955326461  L 0.11022044088171015 1.4570446735395137  C 0.03674014696059089 1.3654066437571544  0 1.2600229095074411  0 1.1408934707903882  C 0 1.021764032073321  0.03674014696059089 0.9163802978235935  0.11022044088171015 0.8247422680412484  L 0.6613226452905736 0.13745704467353903  C 0.7348029392117554 0.04581901489117968  0.8193052772211331 0  0.9148296593186132 0  C 1.0103540414161558 0  1.094856379425471 0.04581901489117968  1.1683366733467153 0.13745704467353903  L 5.5 5.539518900343637  L 9.831663326653285 0.13745704467353903  C 9.90514362057453 0.04581901489117968  9.989645958583845 0  10.085170340681387 0  C 10.180694722778867 0  10.265197060788246 0.04581901489117968  10.338677354709427 0.13745704467353903  L 10.88977955911829 0.8247422680412484  Z " fill-rule="nonzero" fill="#666666" stroke="none" transform="matrix(1 0 0 1 167 151 )" />
  </g>
</svg>