<?xml version="1.0" encoding="utf-8"?>
<svg version="1.1" xmlns:xlink="http://www.w3.org/1999/xlink" width="10px" height="8px" xmlns="http://www.w3.org/2000/svg">
  <g transform="matrix(1 0 0 1 -168 -300 )">
    <path d="M 9.899799599198445 0.8247422680412484  C 9.966599866399463 0.9163802978235935  10 1.021764032073321  10 1.1408934707903882  C 10 1.2600229095074411  9.966599866399463 1.3654066437571544  9.899799599198445 1.4570446735395137  L 5.230460921843644 7.862542955326461  C 5.1636606546426265 7.95418098510882  5.086840347361431 8  5 8  C 4.913159652638569 8  4.8363393453573735 7.95418098510882  4.769539078156356 7.862542955326461  L 0.10020040080155468 1.4570446735395137  C 0.033400133600537174 1.3654066437571544  0 1.2600229095074411  0 1.1408934707903882  C 0 1.021764032073321  0.033400133600537174 0.9163802978235935  0.10020040080155468 0.8247422680412484  L 0.6012024048096123 0.13745704467353903  C 0.6680026720106867 0.04581901489117968  0.7448229792919392 0  0.8316633266532847 0  C 0.918503674014687 0  0.9953239812958827 0.04581901489117968  1.062124248497014 0.13745704467353903  L 5 5.539518900343637  L 8.937875751502986 0.13745704467353903  C 9.004676018704117 0.04581901489117968  9.081496325985313 0  9.168336673346715 0  C 9.25517702070806 0  9.331997327989313 0.04581901489117968  9.398797595190388 0.13745704467353903  L 9.899799599198445 0.8247422680412484  Z " fill-rule="nonzero" fill="#666666" stroke="none" transform="matrix(1 0 0 1 168 300 )" />
  </g>
</svg>