<?xml version="1.0" encoding="utf-8"?>
<svg version="1.1" xmlns:xlink="http://www.w3.org/1999/xlink" width="9px" height="14px" xmlns="http://www.w3.org/2000/svg">
  <g transform="matrix(1 0 0 1 -26 -295 )">
    <path d="M 8 12.676801057501649  L 8 1.1844018506278928  L 1 1.1844018506278928  L 1 12.676801057501649  L 3.8742187500000007 8.92002643754131  L 4.5 8.133509583608728  L 5.125781250000003 8.92002643754131  L 8 12.676801057501649  Z M 0.8156250000000007 0  L 8.184375000000003 0  C 8.292187499999997 0  8.395312500000003 0.027759418374088796  8.493749999999999 0.0832782551222806  C 8.6484375 0.16347213042520536  8.771484375 0.28993170301828286  8.862890624999999 0.4626569729015273  C 8.954296874999997 0.6353822427847575  9 0.8266137915840517  9 1.0363516192994098  L 9 12.96364838070059  C 9 13.173386208415948  8.954296874999997 13.364617757215242  8.862890624999999 13.537343027098473  C 8.771484375 13.710068296981717  8.6484375 13.836527869574795  8.493749999999999 13.91672174487772  C 8.404687500000001 13.966071821987228  8.301562500000003 13.990746860541975  8.184375000000003 13.990746860541975  C 7.959375000000001 13.990746860541975  7.764843750000004 13.892046706322972  7.600781249999997 13.694646397884995  L 4.5 9.771315267680109  L 1.3992187499999993 13.694646397884995  C 1.23046875 13.89821546596167  1.0359374999999993 14  0.8156250000000007 14  C 0.7078124999999993 14  0.6046875000000007 13.972240581625911  0.5062500000000014 13.91672174487772  C 0.3515625 13.836527869574795  0.228515625 13.710068296981717  0.13710937500000142 13.537343027098473  C 0.04570312499999929 13.364617757215242  0 13.173386208415948  0 12.96364838070059  L 0 1.0363516192994098  C 0 0.8266137915840517  0.04570312499999929 0.6353822427847575  0.13710937500000142 0.4626569729015273  C 0.228515625 0.28993170301828286  0.3515625 0.16347213042520536  0.5062500000000014 0.0832782551222806  C 0.6046875000000007 0.027759418374088796  0.7078124999999993 0  0.8156250000000007 0  Z " fill-rule="nonzero" fill="#145ccd" stroke="none" transform="matrix(1 0 0 1 26 295 )" />
  </g>
</svg>