<?xml version="1.0" encoding="utf-8"?>
<svg version="1.1" xmlns:xlink="http://www.w3.org/1999/xlink" width="11px" height="10px" xmlns="http://www.w3.org/2000/svg">
  <g transform="matrix(1 0 0 1 -392 -1493 )">
    <path d="M 10.738767650834403 4.673913043478261  C 10.912922550278138 4.850543478260869  11.000000000000002 5.056612318840578  11 5.292119565217392  C 11.000000000000002 5.523097826086957  10.912922550278138 5.726902173913043  10.738767650834403 5.903532608695652  L 10.209242618741976 6.413043478260869  C 10.030380830124091 6.585144927536231  9.816217372700045 6.671195652173914  9.566752246469832 6.671195652173914  C 9.312580231065468 6.671195652173914  9.100770218228497 6.585144927536231  8.931322207958921 6.413043478260869  L 6.855584082156611 4.422554347826086  L 6.855584082156611 9.20516304347826  C 6.855584082156611 9.440670289855074  6.767329910141207 9.632019927536232  6.590821566110398 9.77921195652174  C 6.414313222079588 9.926403985507248  6.201326486949081 10  5.951861360718871 10  L 5.048138639281129 10  C 4.798673513050921 10  4.585686777920411 9.926403985507248  4.409178433889602 9.77921195652174  C 4.232670089858793 9.632019927536232  4.144415917843388 9.440670289855074  4.144415917843388 9.20516304347826  L 4.144415917843388 4.422554347826086  L 2.068677792041078 6.413043478260869  C 1.8992297817715018 6.585144927536231  1.6874197689345314 6.671195652173914  1.4332477535301669 6.671195652173914  C 1.1790757381258024 6.671195652173914  0.9672657252888318 6.585144927536231  0.7978177150192555 6.413043478260869  L 0.2682926829268293 5.903532608695652  C 0.08943089430894312 5.731431159420289  0 5.527626811594203  0 5.292119565217392  C 0 5.052083333333332  0.08943089430894312 4.846014492753623  0.2682926829268293 4.673913043478261  L 4.864569961489089 0.25135869565217406  C 5.0293110825845115 0.08378623188405765  5.241121095421481 0  5.5 0  C 5.754172015404364 0  5.9683354728284135 0.08378623188405765  6.142490372272144 0.25135869565217406  L 10.738767650834403 4.673913043478261  Z " fill-rule="nonzero" fill="#f7b733" stroke="none" transform="matrix(1 0 0 1 392 1493 )" />
  </g>
</svg>