<?xml version="1.0" encoding="utf-8"?>
<svg version="1.1" xmlns:xlink="http://www.w3.org/1999/xlink" width="11px" height="10px" xmlns="http://www.w3.org/2000/svg">
  <g transform="matrix(1 0 0 1 -592 -1491 )">
    <path d="M 10.738767650834403 5.326086956521739  C 10.912922550278138 5.149456521739131  11.000000000000002 4.943387681159422  11 4.707880434782608  C 11.000000000000002 4.476902173913043  10.912922550278138 4.273097826086957  10.738767650834403 4.096467391304348  L 10.209242618741976 3.586956521739131  C 10.030380830124091 3.4148550724637694  9.816217372700045 3.3288043478260865  9.566752246469832 3.3288043478260865  C 9.312580231065468 3.3288043478260865  9.100770218228497 3.4148550724637694  8.931322207958921 3.586956521739131  L 6.855584082156611 5.577445652173914  L 6.855584082156611 0.7948369565217395  C 6.855584082156611 0.5593297101449268  6.767329910141207 0.3679800724637683  6.590821566110398 0.22078804347826053  C 6.414313222079588 0.07359601449275277  6.201326486949081 0  5.951861360718871 0  L 5.048138639281129 0  C 4.798673513050921 0  4.585686777920411 0.07359601449275277  4.409178433889602 0.22078804347826053  C 4.232670089858793 0.3679800724637683  4.144415917843388 0.5593297101449268  4.144415917843388 0.7948369565217395  L 4.144415917843388 5.577445652173914  L 2.068677792041078 3.586956521739131  C 1.8992297817715018 3.4148550724637694  1.6874197689345314 3.3288043478260865  1.4332477535301669 3.3288043478260865  C 1.1790757381258024 3.3288043478260865  0.9672657252888318 3.4148550724637694  0.7978177150192555 3.586956521739131  L 0.2682926829268293 4.096467391304348  C 0.08943089430894312 4.268568840579711  0 4.472373188405797  0 4.707880434782608  C 0 4.947916666666668  0.08943089430894312 5.153985507246377  0.2682926829268293 5.326086956521739  L 4.864569961489089 9.748641304347826  C 5.0293110825845115 9.916213768115941  5.241121095421481 10  5.5 10  C 5.754172015404364 10  5.9683354728284135 9.916213768115941  6.142490372272144 9.748641304347826  L 10.738767650834403 5.326086956521739  Z " fill-rule="nonzero" fill="#f7b733" stroke="none" transform="matrix(1 0 0 1 592 1491 )" />
  </g>
</svg>