<?xml version="1.0" encoding="utf-8"?>
<svg version="1.1" xmlns:xlink="http://www.w3.org/1999/xlink" width="27px" height="26px" xmlns="http://www.w3.org/2000/svg">
  <g transform="matrix(1 0 0 1 -238 -212 )">
    <path d="M 13.5 24.839285714285715  C 13.673076923076925 24.839285714285715  13.759615384615387 24.761904761904763  13.759615384615383 24.607142857142858  C 13.759615384615387 24.452380952380953  13.673076923076925 24.375  13.5 24.375  C 12.861778846153847 24.375  12.312800480769234 24.16945684523809  11.853064903846153 23.758370535714285  C 11.393329326923078 23.347284226190474  11.163461538461538 22.85639880952381  11.163461538461538 22.28571428571429  C 11.163461538461538 22.13095238095238  11.076923076923078 22.053571428571427  10.903846153846153 22.053571428571427  C 10.730769230769232 22.053571428571427  10.644230769230768 22.13095238095238  10.644230769230768 22.28571428571429  C 10.644230769230768 22.991815476190474  10.922776442307693 23.593936011904763  11.479867788461538 24.092075892857142  C 12.036959134615385 24.590215773809526  12.71033653846154 24.839285714285715  13.5 24.839285714285715  Z M 7.269230769230769 8.357142857142856  C 7.269230769230769 13.502976190476192  5.830528846153847 17.52678571428571  2.953125 20  L 24.046875 20  C 21.169471153846153 17.52678571428571  19.73076923076923 13.502976190476192  19.73076923076923 8.357142857142856  C 19.73076923076923 7.863839285714285  19.600961538461537 7.356026785714285  19.341346153846153 6.833705357142856  C 19.08173076923077 6.311383928571428  18.708533653846153 5.813244047619045  18.221754807692307 5.339285714285715  C 17.734975961538463 4.8653273809523805  17.07782451923077 4.476004464285715  16.25030048076923 4.171316964285715  C 15.422776442307692 3.8666294642857153  14.506009615384617 3.7142857142857153  13.5 3.7142857142857153  C 12.493990384615385 3.7142857142857153  11.577223557692308 3.8666294642857153  10.749699519230768 4.171316964285715  C 9.922175480769232 4.476004464285715  9.265024038461538 4.8653273809523805  8.778245192307692 5.339285714285715  C 8.291466346153847 5.813244047619045  7.918269230769231 6.311383928571428  7.658653846153846 6.833705357142856  C 7.399038461538463 7.356026785714285  7.269230769230769 7.863839285714285  7.269230769230769 8.357142857142856  Z M 25.5234375 19.15178571428571  C 25.966947115384617 19.59672619047619  26.459134615384617 20.022321428571427  27 20.428571428571427  C 27.000000000000007 20.93154761904762  26.794471153846157 21.366815476190478  26.383413461538463 21.734375  C 25.97235576923077 22.101934523809522  25.485576923076927 22.28571428571429  24.923076923076923 22.28571428571429  L 17.653846153846153 22.28571428571429  C 17.653846153846153 23.31101190476191  17.248197115384617 24.186383928571427  16.436899038461537 24.911830357142858  C 15.625600961538462 25.637276785714285  14.646634615384617 26  13.5 26  C 12.353365384615385 26  11.374399038461538 25.637276785714285  10.563100961538462 24.911830357142858  C 9.751802884615385 24.186383928571427  9.346153846153847 23.31101190476191  9.346153846153847 22.28571428571429  L 2.076923076923077 22.28571428571429  C 1.514423076923077 22.28571428571429  1.0276442307692308 22.101934523809522  0.6165865384615384 21.734375  C 0.20552884615384623 21.366815476190478  0 20.93154761904762  0 20.428571428571427  C 0.5408653846153848 20.022321428571427  1.0330528846153848 19.59672619047619  1.4765625 19.15178571428571  C 1.9200721153846156 18.706845238095237  2.3798076923076925 18.12890625  2.855769230769231 17.41796875  C 3.3317307692307696 16.70703125  3.7346754807692313 15.940476190476188  4.064603365384616 15.118303571428571  C 4.394531250000001 14.296130952380953  4.6649639423076925 13.299851190476192  4.8759014423076925 12.129464285714285  C 5.0868389423076925 10.95907738095238  5.1923076923076925 9.701636904761902  5.1923076923076925 8.357142857142856  C 5.1923076923076925 6.886904761904761  5.8251201923076925 5.520647321428572  7.090745192307692 4.258370535714285  C 8.356370192307692 2.99609375  10.016826923076923 2.229538690476189  12.072115384615385 1.9587053571428563  C 11.985576923076923 1.774925595238093  11.942307692307692 1.586309523809524  11.942307692307692 1.3928571428571437  C 11.942307692307692 1.0059523809523803  12.09375 0.6770833333333324  12.396634615384615 0.40625  C 12.699519230769232 0.13541666666666763  13.067307692307692 0  13.5 0  C 13.932692307692308 0  14.300480769230772 0.13541666666666763  14.603365384615383 0.40625  C 14.906250000000002 0.6770833333333324  15.057692307692308 1.0059523809523803  15.057692307692308 1.3928571428571437  C 15.057692307692308 1.586309523809524  15.014423076923077 1.774925595238093  14.927884615384617 1.9587053571428563  C 16.98317307692308 2.229538690476189  18.643629807692307 2.99609375  19.909254807692307 4.258370535714285  C 21.174879807692307 5.520647321428572  21.807692307692307 6.886904761904761  21.807692307692307 8.357142857142856  C 21.807692307692307 9.701636904761902  21.913161057692307 10.95907738095238  22.124098557692307 12.129464285714285  C 22.335036057692307 13.299851190476192  22.60546875 14.296130952380953  22.935396634615383 15.118303571428571  C 23.265324519230774 15.940476190476188  23.66826923076923 16.70703125  24.14423076923077 17.41796875  C 24.62019230769231 18.12890625  25.07992788461539 18.706845238095237  25.5234375 19.15178571428571  Z " fill-rule="nonzero" fill="#f7b733" stroke="none" transform="matrix(1 0 0 1 238 212 )" />
  </g>
</svg>