<?xml version="1.0" encoding="utf-8"?>
<svg version="1.1" xmlns:xlink="http://www.w3.org/1999/xlink" width="15px" height="15px" xmlns="http://www.w3.org/2000/svg">
  <g transform="matrix(1 0 0 1 -1066 -1792 )">
    <path d="M 9.19921875 9.19921875  C 9.989483173076923 8.408954326923077  10.384615384615385 7.457932692307692  10.384615384615385 6.346153846153847  C 10.384615384615385 5.234374999999999  9.989483173076923 4.283353365384615  9.19921875 3.493088942307692  C 8.408954326923078 2.7028245192307683  7.4579326923076925 2.307692307692308  6.346153846153846 2.307692307692308  C 5.234375000000001 2.307692307692308  4.283353365384616 2.7028245192307683  3.493088942307692 3.493088942307692  C 2.7028245192307696 4.283353365384615  2.307692307692308 5.234374999999999  2.307692307692308 6.346153846153847  C 2.307692307692308 7.457932692307692  2.7028245192307696 8.408954326923077  3.493088942307692 9.19921875  C 4.283353365384616 9.98948317307692  5.234375000000001 10.384615384615385  6.346153846153846 10.384615384615385  C 7.4579326923076925 10.384615384615385  8.408954326923078 9.98948317307692  9.19921875 9.19921875  Z M 14.666466346153847 13.034855769230768  C 14.888822115384617 13.25721153846154  15 13.527644230769232  15 13.846153846153847  C 15 14.158653846153847  14.885817307692308 14.42908653846154  14.657451923076923 14.657451923076923  C 14.42908653846154 14.885817307692307  14.158653846153847 15  13.846153846153847 15  C 13.521634615384615 15  13.251201923076923 14.885817307692307  13.034855769230768 14.657451923076923  L 9.942908653846153 11.574519230769232  C 8.8671875 12.31971153846154  7.668269230769232 12.692307692307692  6.346153846153846 12.692307692307692  C 5.486778846153847 12.692307692307692  4.6649639423076925 12.525540865384615  3.880709134615384 12.192007211538463  C 3.096454326923077 11.858473557692308  2.4203725961538463 11.407752403846153  1.8524639423076923 10.83984375  C 1.2845552884615385 10.271935096153847  0.8338341346153848 9.595853365384615  0.5003004807692307 8.811598557692308  C 0.16676682692307693 8.02734375  0 7.205528846153845  0 6.346153846153847  C 0 5.486778846153844  0.16676682692307693 4.6649639423076925  0.5003004807692307 3.880709134615384  C 0.8338341346153848 3.0964543269230766  1.2845552884615385 2.4203725961538467  1.8524639423076923 1.852463942307692  C 2.4203725961538463 1.2845552884615392  3.096454326923077 0.8338341346153844  3.880709134615384 0.5003004807692313  C 4.6649639423076925 0.16676682692307654  5.486778846153847 0  6.346153846153846 0  C 7.205528846153847 0  8.02734375 0.16676682692307654  8.811598557692308 0.5003004807692313  C 9.595853365384615 0.8338341346153844  10.271935096153847 1.2845552884615392  10.83984375 1.852463942307692  C 11.407752403846153 2.4203725961538467  11.858473557692308 3.0964543269230766  12.192007211538462 3.880709134615384  C 12.525540865384615 4.6649639423076925  12.692307692307692 5.486778846153844  12.692307692307692 6.346153846153847  C 12.692307692307692 7.66826923076923  12.31971153846154 8.867187499999998  11.574519230769232 9.942908653846153  L 14.666466346153847 13.034855769230768  Z " fill-rule="nonzero" fill="#cccccc" stroke="none" transform="matrix(1 0 0 1 1066 1792 )" />
  </g>
</svg>