<?xml version="1.0" encoding="utf-8"?>
<svg version="1.1" xmlns:xlink="http://www.w3.org/1999/xlink" width="50px" height="31px" xmlns="http://www.w3.org/2000/svg">
  <g transform="matrix(1 0 0 1 -1307 -232 )">
    <path d="M 1.2451171875 21.518359375  C 0.4150390625 19.605078125000002  0 17.598958333333332  0 15.5  C 0 13.401041666666666  0.4150390625 11.394921875  1.2451171875 9.481640625  C 2.0751953125000004 7.568359375  3.18603515625 5.921484375  4.57763671875 4.541015625  C 5.969238281250001 3.160546874999999  7.62939453125 2.05859375  9.55810546875 1.2351562499999986  C 11.486816406250002 0.4117187500000007  13.509114583333334 0  15.625 0  L 34.375 0  C 36.49088541666667 0  38.51318359375 0.4117187500000007  40.44189453125 1.2351562499999986  C 42.37060546875 2.05859375  44.03076171875 3.160546874999999  45.42236328125 4.541015625  C 46.81396484375 5.921484375  47.9248046875 7.568359375  48.7548828125 9.481640625  C 49.5849609375 11.394921875  50 13.401041666666666  50 15.5  C 50 17.598958333333332  49.5849609375 19.605078125000002  48.7548828125 21.518359375  C 47.9248046875 23.431640625  46.81396484375 25.078515624999998  45.42236328125 26.458984375  C 44.03076171875 27.839453125000002  42.37060546875 28.94140625  40.44189453125 29.76484375  C 38.51318359375 30.588281249999998  36.49088541666667 31  34.375 31  L 15.625 31  C 13.509114583333334 31  11.486816406250002 30.588281249999998  9.55810546875 29.76484375  C 7.62939453125 28.94140625  5.969238281250001 27.839453125000002  4.57763671875 26.458984375  C 3.18603515625 25.078515624999998  2.0751953125000004 23.431640625  1.2451171875 21.518359375  Z M 29.52880859375 26.919140625  C 31.06689453125 27.573046875  32.68229166666667 27.900000000000002  34.375 27.900000000000002  C 36.067708333333336 27.900000000000002  37.68310546875 27.573046875  39.22119140625 26.919140625  C 40.75927734375001 26.265234375000002  42.08984375000001 25.381249999999998  43.212890625 24.267187500000002  C 44.33593750000001 23.153125  45.22705078125001 21.833203125  45.88623046875 20.307421875  C 46.54541015625001 18.781640624999998  46.87500000000001 17.179166666666664  46.875 15.5  C 46.87500000000001 13.820833333333333  46.54541015625001 12.218359375  45.88623046875 10.692578125  C 45.22705078125001 9.166796875  44.33593750000001 7.846874999999998  43.212890625 6.7328125  C 42.08984375000001 5.61875  40.75927734375001 4.734765625  39.22119140625 4.080859374999998  C 37.68310546875 3.4269531250000016  36.067708333333336 3.099999999999999  34.375 3.099999999999999  C 32.68229166666667 3.099999999999999  31.06689453125 3.4269531250000016  29.52880859375 4.080859374999998  C 27.99072265625 4.734765625  26.66015625 5.61875  25.537109375 6.7328125  C 24.4140625 7.846874999999998  23.52294921875 9.166796875  22.86376953125 10.692578125  C 22.20458984375 12.218359375  21.875 13.820833333333333  21.875 15.5  C 21.875 17.179166666666664  22.20458984375 18.781640624999998  22.86376953125 20.307421875  C 23.52294921875 21.833203125  24.4140625 23.153125  25.537109375 24.267187500000002  C 26.66015625 25.381249999999998  27.99072265625 26.265234375000002  29.52880859375 26.919140625  Z " fill-rule="nonzero" fill="#4abdac" stroke="none" transform="matrix(1 0 0 1 1307 232 )" />
  </g>
</svg>