<?xml version="1.0" encoding="utf-8"?>
<svg version="1.1" xmlns:xlink="http://www.w3.org/1999/xlink" width="7px" height="7px" xmlns="http://www.w3.org/2000/svg">
  <g transform="matrix(1 0 0 1 -735 -205 )">
    <path d="M 6.8701171875 0.23090277777777812  C 6.956705729166667 0.38483796296296224  7 0.5671296296296279  7 0.7777777777777781  C 7 0.9884259259259253  6.956705729166667 1.1707175925925917  6.8701171875 1.3246527777777781  L 3.8076171875 6.769097222222221  C 3.7210286458333335 6.923032407407408  3.6184895833333335 7  3.5 7  C 3.381510416666667 7  3.278971354166667 6.923032407407408  3.1923828125 6.769097222222221  L 0.1298828125 1.3246527777777781  C 0.04329427083333333 1.1707175925925917  0 0.9884259259259253  0 0.7777777777777781  C 0 0.5671296296296279  0.04329427083333333 0.38483796296296224  0.1298828125 0.23090277777777812  C 0.21647135416666669 0.07696759259259167  0.3190104166666667 0  0.4375 0  L 6.5625 0  C 6.680989583333334 0  6.783528645833334 0.07696759259259167  6.8701171875 0.23090277777777812  Z " fill-rule="nonzero" fill="#7f7f7f" stroke="none" transform="matrix(1 0 0 1 735 205 )" />
  </g>
</svg>