<?xml version="1.0" encoding="utf-8"?>
<svg version="1.1" xmlns:xlink="http://www.w3.org/1999/xlink" width="451px" height="366px" xmlns="http://www.w3.org/2000/svg">
  <defs>
    <mask fill="white" id="clip8">
      <path d="M 0 356  L 0 45.139391677551  L 0 0  L 441 0  L 441 356  L 0 356  Z " fill-rule="evenodd" />
    </mask>
    <filter x="231px" y="428px" width="451px" height="366px" filterUnits="userSpaceOnUse" id="filter9">
      <feOffset dx="5" dy="5" in="SourceAlpha" result="shadowOffsetInner" />
      <feGaussianBlur stdDeviation="2.5" in="shadowOffsetInner" result="shadowGaussian" />
      <feComposite in2="shadowGaussian" operator="atop" in="SourceAlpha" result="shadowComposite" />
      <feColorMatrix type="matrix" values="0 0 0 0 0.9686274509803922  0 0 0 0 0.7176470588235294  0 0 0 0 0.2  0 0 0 0.984313725490196 0  " in="shadowComposite" />
    </filter>
    <g id="widget10">
      <path d="M 0 356  L 0 45.139391677551  L 0 0  L 441 0  L 441 356  L 0 356  Z " fill-rule="nonzero" fill="#ffffff" stroke="none" fill-opacity="0.984313725490196" transform="matrix(1 0 0 1 231 428 )" />
      <path d="M 0 356  L 0 45.139391677551  L 0 0  L 441 0  L 441 356  L 0 356  Z " stroke-width="6" stroke="#f7b733" fill="none" transform="matrix(1 0 0 1 231 428 )" mask="url(#clip8)" />
    </g>
  </defs>
  <g transform="matrix(1 0 0 1 -231 -428 )">
    <use xlink:href="#widget10" filter="url(#filter9)" />
    <use xlink:href="#widget10" />
  </g>
</svg>