<?xml version="1.0" encoding="utf-8"?>
<svg version="1.1" xmlns:xlink="http://www.w3.org/1999/xlink" width="20px" height="17px" xmlns="http://www.w3.org/2000/svg">
  <g transform="matrix(1 0 0 1 -764 -236 )">
    <path d="M 19.799599198396795 1.7525773195876284  C 19.933199732798933 1.947308132875138  20 2.1712485681557827  20 2.424398625429554  C 20 2.67754868270332  19.933199732798933 2.9014891179839606  19.799599198396795 3.096219931271478  L 10.460921843687373 16.707903780068726  C 10.327321309285239 16.902634593356236  10.17368069472278 17  10 17  C 9.826319305277222 17  9.672678690714765 16.902634593356236  9.539078156312625 16.707903780068726  L 0.2004008016032064 3.096219931271478  C 0.06680026720106899 2.9014891179839606  0 2.67754868270332  0 2.424398625429554  C 0 2.1712485681557827  0.06680026720106899 1.947308132875138  0.2004008016032064 1.7525773195876284  L 1.2024048096192383 0.2920962199312723  C 1.3360053440213764 0.09736540664375493  1.4896459585838344 0  1.6633266533066133 0  C 1.8370073480293925 0  1.9906479625918505 0.09736540664375493  2.124248496993988 0.2920962199312723  L 10 11.77147766323024  L 17.87575150300601 0.2920962199312723  C 18.00935203740815 0.09736540664375493  18.162992651970608 0  18.336673346693388 0  C 18.510354041416168 0  18.663994655978627 0.09736540664375493  18.79759519038076 0.2920962199312723  L 19.799599198396795 1.7525773195876284  Z " fill-rule="nonzero" fill="#fabb3d" stroke="none" transform="matrix(1 0 0 1 764 236 )" />
  </g>
</svg>