<?xml version="1.0" encoding="utf-8"?>
<svg version="1.1" xmlns:xlink="http://www.w3.org/1999/xlink" width="23px" height="18px" xmlns="http://www.w3.org/2000/svg">
  <g transform="matrix(1 0 0 1 -801 -352 )">
    <path d="M 22.60481099656357 1.0821643286573137  C 22.868270332187862 1.2024048096192363  23 1.3406813627254486  23 1.4969939879759524  C 23 1.6533066132264522  22.868270332187862 1.7915831663326645  22.60481099656357 1.911823647294589  L 7.073883161512028 9  L 22.60481099656357 16.08817635270541  C 22.868270332187862 16.208416833667336  23 16.346693386773545  23 16.50300601202405  C 23 16.65931863727455  22.868270332187862 16.79759519038076  22.60481099656357 16.917835671342687  L 20.628865979381445 17.819639278557116  C 20.36540664375716 17.939879759519037  20.062428407789234 18  19.719931271477662 18  C 19.377434135166098 18  19.07445589919817 17.939879759519037  18.810996563573884 17.819639278557116  L 0.39518900343642616 9.414829659318636  C 0.13172966781214213 9.294589178356713  0 9.1563126252505  0 9  C 0 8.843687374749498  0.13172966781214213 8.705410821643286  0.39518900343642616 8.585170340681364  L 18.810996563573884 0.18036072144288595  C 19.07445589919817 0.06012024048096132  19.377434135166098 0  19.719931271477662 0  C 20.062428407789234 0  20.36540664375716 0.06012024048096132  20.628865979381445 0.18036072144288595  L 22.60481099656357 1.0821643286573137  Z " fill-rule="nonzero" fill="#c1374a" stroke="none" transform="matrix(1 0 0 1 801 352 )" />
  </g>
</svg>