<?xml version="1.0" encoding="utf-8"?>
<svg version="1.1" xmlns:xlink="http://www.w3.org/1999/xlink" width="20px" height="11px" xmlns="http://www.w3.org/2000/svg">
  <g transform="matrix(1 0 0 1 -743 -754 )">
    <path d="M 19.62890625 0.36284722222222276  C 19.876302083333336 0.6047453703703692  20 0.891203703703701  20 1.2222222222222228  C 20 1.5532407407407396  19.876302083333336 1.8396990740740726  19.62890625 2.0815972222222228  L 10.87890625 10.637152777777777  C 10.631510416666668 10.879050925925927  10.338541666666668 11  10 11  C 9.661458333333336 11  9.368489583333336 10.879050925925927  9.12109375 10.637152777777777  L 0.37109375 2.0815972222222228  C 0.12369791666666666 1.8396990740740726  0 1.5532407407407396  0 1.2222222222222228  C 0 0.891203703703701  0.12369791666666666 0.6047453703703692  0.37109375 0.36284722222222276  C 0.6184895833333334 0.12094907407407263  0.9114583333333335 0  1.25 0  L 18.75 0  C 19.088541666666668 0  19.381510416666668 0.12094907407407263  19.62890625 0.36284722222222276  Z " fill-rule="nonzero" fill="#4abdac" stroke="none" fill-opacity="0.8980392156862745" transform="matrix(1 0 0 1 743 754 )" />
  </g>
</svg>