<?xml version="1.0" encoding="utf-8"?>
<svg version="1.1" xmlns:xlink="http://www.w3.org/1999/xlink" width="53px" height="25px" xmlns="http://www.w3.org/2000/svg">
  <g transform="matrix(1 0 0 1 -384 -921 )">
    <path d="M 12.533816016769386 0  C 5.611618128010037 0  0 5.596458573733116  0 12.500029688077575  C 0 19.403600860519646  5.611618128010037 24.999999941901933  12.533816016769386 24.999999941901933  C 12.81977695656942 24.999999941901933  13.103353354495948 24.989655302713345  13.384545327058554 25  L 39.615454672941446 25  C 39.896646587249315 24.989655302713345  40.180223043430466 25  40.466183983230614 25  C 47.388441466604014 25  53 19.403600918617485  53 12.500029746175414  C 53 5.596458573733116  47.388441466604014 0  40.466183983230614 0  C 40.17986535923678 0  39.896110119213354 0.010463623890245799  39.614560520711805 0  L 13.385439479288197 0  C 13.103889880786646 0.010463565792178997  12.820074987894428 0  12.533816016769386 0  Z M 39.46207182626145 23.201397328914254  C 33.53593837487583 23.201397328914254  28.731830529418033 18.410276134675996  28.731830529418033 12.500029688077575  C 28.731830529418033 6.589783241478926  33.53593837487583 1.7986620472404413  39.46207182626145 1.7986620472404413  C 45.38820527764729 1.7986620472404413  50.19231312310509 6.589783241478926  50.19231312310509 12.500029688077575  C 50.19231312310509 18.410276134675996  45.38820527764729 23.201397328914254  39.46207182626145 23.201397328914254  Z " fill-rule="nonzero" fill="#4abdac" stroke="none" fill-opacity="0.8980392156862745" transform="matrix(1 0 0 1 384 921 )" />
  </g>
</svg>