<?xml version="1.0" encoding="utf-8"?>
<svg version="1.1" xmlns:xlink="http://www.w3.org/1999/xlink" width="11px" height="6px" xmlns="http://www.w3.org/2000/svg">
  <g transform="matrix(1 0 0 1 -1244 -305 )">
    <path d="M 10.795898437500044 0.1979166666666572  C 10.931966145833309 0.32986111111111427  11 0.48611111111111427  11 0.6666666666666572  C 11 0.8472222222222285  10.931966145833309 1.0034722222222285  10.795898437500044 1.1354166666666572  L 5.983398437500003 5.802083333333343  C 5.847330729166622 5.9340277777777715  5.686197916666621 6  5.5 6  C 5.313802083333378 6  5.152669270833378 5.9340277777777715  5.016601562499998 5.802083333333343  L 0.20410156249995454 1.1354166666666572  C 0.06803385416669011 1.0034722222222285  0 0.8472222222222285  0 0.6666666666666572  C 0 0.48611111111111427  0.06803385416669011 0.32986111111111427  0.20410156249995454 0.1979166666666572  C 0.34016927083333476 0.06597222222222854  0.5013020833333355 0  0.6874999999999566 0  L 10.312500000000044 0  C 10.498697916666664 0  10.659830729166664 0.06597222222222854  10.795898437500044 0.1979166666666572  Z " fill-rule="nonzero" fill="#cccccc" stroke="none" transform="matrix(1 0 0 1 1244 305 )" />
  </g>
</svg>