<?xml version="1.0" encoding="utf-8"?>
<svg version="1.1" xmlns:xlink="http://www.w3.org/1999/xlink" width="24px" height="35px" xmlns="http://www.w3.org/2000/svg">
  <g transform="matrix(1 0 0 1 -457 -519 )">
    <path d="M 23.58762886597938 16.693386773547097  C 23.862542955326465 16.927187708750832  24 17.196058784235134  24 17.5  C 24 17.803941215764862  23.862542955326465 18.07281229124916  23.58762886597938 18.306613226452903  L 4.371134020618556 34.64929859719439  C 4.096219931271477 34.883099532398134  3.7800687285223367 35  3.422680412371134 35  C 3.065292096219932 35  2.7491408934707904 34.883099532398134  2.4742268041237114 34.64929859719439  L 0.4123711340206186 32.895791583166336  C 0.1374570446735396 32.66199064796259  0 32.39311957247829  0 32.089178356713425  C 0 31.78523714094856  0.1374570446735396 31.516366065464265  0.4123711340206186 31.282565130260522  L 16.618556701030926 17.5  L 0.4123711340206186 3.7174348697394786  C 0.1374570446735396 3.4836339345357366  0 3.2147628590514348  0 2.910821643286574  C 0 2.6068804275217055  0.1374570446735396 2.338009352037404  0.4123711340206186 2.1042084168336657  L 2.4742268041237114 0.3507014028056116  C 2.7491408934707904 0.11690046760186923  3.065292096219932 0  3.422680412371134 0  C 3.7800687285223367 0  4.096219931271477 0.11690046760186923  4.371134020618556 0.3507014028056116  L 23.58762886597938 16.693386773547097  Z " fill-rule="nonzero" fill="#f7b733" stroke="none" transform="matrix(1 0 0 1 457 519 )" />
  </g>
</svg>