<?xml version="1.0" encoding="utf-8"?>
<svg version="1.1" xmlns:xlink="http://www.w3.org/1999/xlink" width="44px" height="44px" xmlns="http://www.w3.org/2000/svg">
  <g transform="matrix(1 0 0 1 -418 -191 )">
    <path d="M 13.455357142857144 1.7433035714285707  C 16.172619047619047 0.5811011904761902  19.020833333333336 0  22 0  C 24.979166666666668 0  27.827380952380956 0.5811011904761902  30.544642857142858 1.7433035714285707  C 33.261904761904766 2.905505952380951  35.60267857142857 4.46875  37.566964285714285 6.433035714285712  C 39.53125000000001 8.397321428571429  41.09449404761905 10.738095238095234  42.25669642857143 13.455357142857142  C 43.41889880952382 16.172619047619044  44 19.020833333333332  44 22  C 44 24.96279761904762  43.42299107142857 27.80282738095238  42.268973214285715 30.520089285714285  C 41.11495535714286 33.2373511904762  39.55580357142857 35.578125  37.59151785714286 37.542410714285715  C 35.62723214285714 39.50669642857143  33.286458333333336 41.074032738095234  30.56919642857143 42.24441964285714  C 27.851934523809526 43.41480654761905  24.99553571428571 44  22 44  C 19.004464285714285 44  16.148065476190478 43.41889880952381  13.430803571428571 42.25669642857143  C 10.713541666666668 41.09449404761905  8.37686011904762 39.527157738095234  6.420758928571428 37.5546875  C 4.464657738095238 35.58221726190476  2.9055059523809526 33.24144345238095  1.7433035714285714 30.53236607142857  C 0.5811011904761904 27.823288690476186  0 24.979166666666664  0 22  C 0 19.020833333333332  0.5811011904761904 16.172619047619044  1.7433035714285714 13.455357142857142  C 2.9055059523809526 10.738095238095234  4.46875 8.397321428571429  6.433035714285714 6.433035714285712  C 8.397321428571429 4.46875  10.738095238095239 2.905505952380951  13.455357142857144 1.7433035714285707  Z M 29.685267857142858 25.142857142857142  C 33.613839285714285 25.142857142857142  36.11830357142857 27.81919642857143  37.198660714285715 33.171875  C 39.63764880952382 29.81622023809524  40.85714285714286 26.0922619047619  40.85714285714286 22  C 40.85714285714286 19.44642857142857  40.357886904761905 17.007440476190474  39.359375 14.683035714285712  C 38.360863095238095 12.35863095238095  37.0186011904762 10.353422619047615  35.332589285714285 8.667410714285712  C 33.64657738095239 6.98139880952381  31.641369047619047 5.639136904761902  29.31696428571429 4.640625  C 26.992559523809526 3.6421130952380927  24.55357142857143 3.1428571428571415  22 3.1428571428571415  C 19.44642857142857 3.1428571428571415  17.007440476190478 3.6421130952380927  14.683035714285715 4.640625  C 12.358630952380954 5.639136904761902  10.35342261904762 6.98139880952381  8.667410714285715 8.667410714285712  C 6.981398809523811 10.353422619047615  5.639136904761905 12.35863095238095  4.640625 14.683035714285712  C 3.642113095238096 17.007440476190474  3.142857142857143 19.44642857142857  3.142857142857143 22  C 3.142857142857143 26.0922619047619  4.362351190476191 29.81622023809524  6.801339285714286 33.171875  C 7.881696428571428 27.81919642857143  10.386160714285715 25.142857142857142  14.314732142857144 25.142857142857142  C 16.459077380952383 27.23809523809524  19.020833333333336 28.285714285714285  22 28.285714285714285  C 24.979166666666668 28.285714285714285  27.54092261904762 27.23809523809524  29.685267857142858 25.142857142857142  Z M 28.666294642857142 23.95200892857143  C 30.5078125 22.11049107142857  31.42857142857143 19.888392857142858  31.42857142857143 17.28571428571429  C 31.42857142857143 14.683035714285712  30.5078125 12.4609375  28.666294642857142 10.619419642857142  C 26.82477678571429 8.777901785714288  24.60267857142857 7.8571428571428585  22 7.8571428571428585  C 19.39732142857143 7.8571428571428585  17.175223214285715 8.777901785714288  15.333705357142856 10.619419642857142  C 13.4921875 12.4609375  12.571428571428571 14.683035714285712  12.571428571428571 17.28571428571429  C 12.571428571428571 19.888392857142858  13.4921875 22.11049107142857  15.333705357142856 23.95200892857143  C 17.175223214285715 25.793526785714285  19.39732142857143 26.714285714285715  22 26.714285714285715  C 24.60267857142857 26.714285714285715  26.82477678571429 25.793526785714285  28.666294642857142 23.95200892857143  Z " fill-rule="nonzero" fill="#aaaaaa" stroke="none" transform="matrix(1 0 0 1 418 191 )" />
  </g>
</svg>