<?xml version="1.0" encoding="utf-8"?>
<svg version="1.1" xmlns:xlink="http://www.w3.org/1999/xlink" width="15px" height="16px" xmlns="http://www.w3.org/2000/svg">
  <g transform="matrix(1 0 0 1 -479 -583 )">
    <path d="M 1.153846153846154 12.285714285714285  L 1.153846153846154 14.857142857142858  L 3.75 14.857142857142858  L 3.75 12.285714285714285  L 1.153846153846154 12.285714285714285  Z M 4.326923076923077 12.285714285714285  L 4.326923076923077 14.857142857142858  L 7.211538461538462 14.857142857142858  L 7.211538461538462 12.285714285714285  L 4.326923076923077 12.285714285714285  Z M 1.153846153846154 8.857142857142858  L 1.153846153846154 11.714285714285715  L 3.75 11.714285714285715  L 3.75 8.857142857142858  L 1.153846153846154 8.857142857142858  Z M 4.326923076923077 8.857142857142858  L 4.326923076923077 11.714285714285715  L 7.211538461538462 11.714285714285715  L 7.211538461538462 8.857142857142858  L 4.326923076923077 8.857142857142858  Z M 1.153846153846154 5.7142857142857135  L 1.153846153846154 8.285714285714285  L 3.75 8.285714285714285  L 3.75 5.7142857142857135  L 1.153846153846154 5.7142857142857135  Z M 7.788461538461539 12.285714285714285  L 7.788461538461539 14.857142857142858  L 10.673076923076923 14.857142857142858  L 10.673076923076923 12.285714285714285  L 7.788461538461539 12.285714285714285  Z M 4.326923076923077 5.7142857142857135  L 4.326923076923077 8.285714285714285  L 7.211538461538462 8.285714285714285  L 7.211538461538462 5.7142857142857135  L 4.326923076923077 5.7142857142857135  Z M 11.25 12.285714285714285  L 11.25 14.857142857142858  L 13.846153846153847 14.857142857142858  L 13.846153846153847 12.285714285714285  L 11.25 12.285714285714285  Z M 7.788461538461539 8.857142857142858  L 7.788461538461539 11.714285714285715  L 10.673076923076923 11.714285714285715  L 10.673076923076923 8.857142857142858  L 7.788461538461539 8.857142857142858  Z M 4.529747596153846 4.200892857142858  C 4.5868389423076925 4.144345238095237  4.615384615384616 4.077380952380951  4.615384615384616 4  L 4.615384615384616 1.4285714285714288  C 4.615384615384616 1.3511904761904763  4.5868389423076925 1.2842261904761898  4.529747596153846 1.2276785714285712  C 4.472656250000001 1.1711309523809508  4.405048076923077 1.1428571428571423  4.326923076923077 1.1428571428571423  L 3.75 1.1428571428571423  C 3.6718750000000004 1.1428571428571423  3.604266826923077 1.1711309523809508  3.547175480769231 1.2276785714285712  C 3.490084134615384 1.2842261904761898  3.4615384615384617 1.3511904761904763  3.4615384615384617 1.4285714285714288  L 3.4615384615384617 4  C 3.4615384615384617 4.077380952380951  3.490084134615384 4.144345238095237  3.547175480769231 4.200892857142858  C 3.604266826923077 4.257440476190476  3.6718750000000004 4.2857142857142865  3.75 4.2857142857142865  L 4.326923076923077 4.2857142857142865  C 4.405048076923077 4.2857142857142865  4.472656250000001 4.257440476190476  4.529747596153846 4.200892857142858  Z M 11.25 8.857142857142858  L 11.25 11.714285714285715  L 13.846153846153847 11.714285714285715  L 13.846153846153847 8.857142857142858  L 11.25 8.857142857142858  Z M 7.788461538461539 5.7142857142857135  L 7.788461538461539 8.285714285714285  L 10.673076923076923 8.285714285714285  L 10.673076923076923 5.7142857142857135  L 7.788461538461539 5.7142857142857135  Z M 11.25 5.7142857142857135  L 11.25 8.285714285714285  L 13.846153846153847 8.285714285714285  L 13.846153846153847 5.7142857142857135  L 11.25 5.7142857142857135  Z M 11.452824519230768 4.200892857142858  C 11.509915865384617 4.144345238095237  11.538461538461538 4.077380952380951  11.538461538461538 4  L 11.538461538461538 1.4285714285714288  C 11.538461538461538 1.3511904761904763  11.509915865384617 1.2842261904761898  11.452824519230768 1.2276785714285712  C 11.395733173076923 1.1711309523809508  11.328125 1.1428571428571423  11.25 1.1428571428571423  L 10.673076923076923 1.1428571428571423  C 10.594951923076925 1.1428571428571423  10.527343750000002 1.1711309523809508  10.470252403846153 1.2276785714285712  C 10.413161057692308 1.2842261904761898  10.384615384615385 1.3511904761904763  10.384615384615385 1.4285714285714288  L 10.384615384615385 4  C 10.384615384615385 4.077380952380951  10.413161057692308 4.144345238095237  10.470252403846153 4.200892857142858  C 10.527343750000002 4.257440476190476  10.594951923076925 4.2857142857142865  10.673076923076923 4.2857142857142865  L 11.25 4.2857142857142865  C 11.328125 4.2857142857142865  11.395733173076923 4.257440476190476  11.452824519230768 4.200892857142858  Z M 14.657451923076923 2.625  C 14.885817307692308 2.8511904761904763  15 3.1190476190476186  15 3.428571428571429  L 15 14.857142857142858  C 15 15.166666666666668  14.885817307692308 15.43452380952381  14.657451923076923 15.660714285714286  C 14.42908653846154 15.886904761904761  14.158653846153847 16  13.846153846153847 16  L 1.153846153846154 16  C 0.841346153846154 16  0.5709134615384616 15.886904761904761  0.3425480769230769 15.660714285714286  C 0.1141826923076923 15.43452380952381  0 15.166666666666668  0 14.857142857142858  L 0 3.428571428571429  C 0 3.1190476190476186  0.1141826923076923 2.8511904761904763  0.3425480769230769 2.625  C 0.5709134615384616 2.398809523809522  0.841346153846154 2.2857142857142865  1.153846153846154 2.2857142857142865  L 2.307692307692308 2.2857142857142865  L 2.307692307692308 1.4285714285714288  C 2.307692307692308 1.0357142857142865  2.448918269230769 0.699404761904761  2.731370192307692 0.41964285714285765  C 3.013822115384616 0.13988095238095255  3.3533653846153846 0  3.75 0  L 4.326923076923077 0  C 4.7235576923076925 0  5.063100961538463 0.13988095238095255  5.345552884615384 0.41964285714285765  C 5.628004807692308 0.699404761904761  5.769230769230769 1.0357142857142865  5.769230769230769 1.4285714285714288  L 5.769230769230769 2.2857142857142865  L 9.230769230769232 2.2857142857142865  L 9.230769230769232 1.4285714285714288  C 9.230769230769232 1.0357142857142865  9.371995192307693 0.699404761904761  9.654447115384615 0.41964285714285765  C 9.93689903846154 0.13988095238095255  10.276442307692308 0  10.673076923076923 0  L 11.25 0  C 11.646634615384615 0  11.986177884615385 0.13988095238095255  12.268629807692308 0.41964285714285765  C 12.551081730769232 0.699404761904761  12.692307692307692 1.0357142857142865  12.692307692307692 1.4285714285714288  L 12.692307692307692 2.2857142857142865  L 13.846153846153847 2.2857142857142865  C 14.158653846153847 2.2857142857142865  14.42908653846154 2.398809523809522  14.657451923076923 2.625  Z " fill-rule="nonzero" fill="#1abc9c" stroke="none" transform="matrix(1 0 0 1 479 583 )" />
  </g>
</svg>